<svg class="w-6 h-6" width="24" height="24" viewBox="0 0 24 24" fill="none" xmlns="http://www.w3.org/2000/svg"><path d="M15.3691 7.22462C15.7619 6.90427 16.3409 6.92686 16.707 7.29298C17.0731 7.65909 17.0957 8.2381 16.7754 8.63087L16.707 8.70704L2.70702 22.707C2.31649 23.0976 1.68348 23.0976 1.29295 22.707C0.90243 22.3165 0.90243 21.6835 1.29295 21.293L15.293 7.29298L15.3691 7.22462Z" fill="#686583" style="fill-opacity:1;"/><path d="M6.53766 14.7539C6.48123 14.1834 6.23071 13.6463 5.82281 13.2363V13.2373L4.99957 12.4141L4.17731 13.2373L4.17633 13.2363C3.71049 13.7048 3.44977 14.3393 3.44977 15L3.46149 15.2461C3.51786 15.8163 3.76897 16.3529 4.17633 16.7627H4.17731L4.99957 17.585L5.82281 16.7627C6.28863 16.2943 6.55035 15.6607 6.55035 15L6.53766 14.7539ZM8.54449 15.2227C8.48958 16.332 8.02632 17.3851 7.23883 18.1758L7.23688 18.1768L5.70758 19.707C5.52004 19.8946 5.26479 20 4.99957 20C4.76778 19.9999 4.54455 19.919 4.36676 19.7734L4.29254 19.707L2.76324 18.1768L2.76129 18.1758C1.92126 17.3324 1.44977 16.1904 1.44977 15C1.44977 13.8096 1.92126 12.6676 2.76129 11.8242L2.76324 11.8233L4.29254 10.293L4.36871 10.2246C4.76149 9.90404 5.34138 9.92678 5.70758 10.293L7.23688 11.8233L7.23883 11.8242L7.39215 11.9863C8.13591 12.811 8.55035 13.8842 8.55035 15L8.54449 15.2227Z" fill="#686583" style="fill-opacity:1;"/><path d="M10.5377 10.7539C10.4812 10.1834 10.2307 9.64628 9.82281 9.23634V9.23732L8.99957 8.41407L8.17731 9.23732L8.17633 9.23634C7.71049 9.70476 7.44977 10.3393 7.44977 11C7.44977 11.6605 7.7108 12.2943 8.17633 12.7627H8.17731L8.99957 13.585L9.82281 12.7627C10.2886 12.2943 10.5504 11.6607 10.5504 11L10.5377 10.7539ZM12.5445 11.2227C12.4896 12.332 12.0263 13.3851 11.2388 14.1758L11.2369 14.1768L9.70758 15.707C9.31706 16.0976 8.68307 16.0976 8.29254 15.707L6.76324 14.1768L6.76129 14.1758C5.92126 13.3324 5.44977 12.1904 5.44977 11C5.44977 9.80965 5.92126 8.66762 6.76129 7.82423L6.76324 7.82325L8.29254 6.29298L8.36871 6.22462C8.76149 5.90404 9.34138 5.92678 9.70758 6.29298L11.2369 7.82325L11.2388 7.82423L11.3922 7.98634C12.1359 8.81103 12.5504 9.88422 12.5504 11L12.5445 11.2227Z" fill="#686583" style="fill-opacity:1;"/><path d="M14.5503 7C14.5503 6.33911 14.2889 5.70479 13.8228 5.23633V5.2373L12.9995 4.41406L12.1772 5.2373L12.1763 5.23633C11.7104 5.70475 11.4497 6.33932 11.4497 7C11.4497 7.66044 11.7107 8.29433 12.1763 8.7627H12.1772L12.9995 9.58496L13.8228 8.7627C14.2886 8.29428 14.5503 7.66066 14.5503 7ZM16.5503 7C16.5503 8.19035 16.0788 9.33239 15.2388 10.1758L15.2368 10.1768L13.7075 11.707C13.3413 12.0732 12.7614 12.096 12.3687 11.7754L12.2925 11.707L10.7632 10.1768L10.7612 10.1758C9.9212 9.33239 9.44971 8.19037 9.44971 7C9.44971 5.80963 9.9212 4.66761 10.7612 3.82422L10.7632 3.82324L12.2925 2.29297L12.3667 2.22656C12.5445 2.08098 12.7677 2.00011 12.9995 2C13.2647 2 13.52 2.10543 13.7075 2.29297L15.2368 3.82324L15.2388 3.82422L15.3921 3.98633C16.1358 4.81102 16.5503 5.88421 16.5503 7Z" fill="#686583" style="fill-opacity:1;"/><path d="M21 4V3H20C19.2044 3 18.4415 3.3163 17.8789 3.87891C17.3163 4.44152 17 5.20435 17 6V7H18L18.2969 6.98535C18.9835 6.91709 19.6289 6.61329 20.1211 6.12109C20.6837 5.55848 21 4.79565 21 4ZM23 4C23 5.32608 22.4728 6.59747 21.5352 7.53516C20.6561 8.41421 19.4838 8.93281 18.248 8.99414L18 9H16C15.4477 9 15 8.55228 15 8V6C15 4.67392 15.5272 3.40253 16.4648 2.46484C17.4025 1.52716 18.6739 1 20 1H22L22.1025 1.00488C22.6067 1.05621 23 1.48232 23 2V4Z" fill="#686583" style="fill-opacity:1;"/><path d="M8.99999 15.4497C10.1158 15.4497 11.189 15.8641 12.0137 16.6079L12.1758 16.7612L12.1767 16.7632L13.707 18.2925C14.0975 18.683 14.0975 19.317 13.707 19.7075L12.1767 21.2368L12.1758 21.2388C11.3851 22.0263 10.332 22.4895 9.22264 22.5444L8.99999 22.5503C7.80963 22.5503 6.66759 22.0788 5.8242 21.2388L5.82323 21.2368L4.29295 19.7075C3.90243 19.317 3.90243 18.683 4.29295 18.2925L5.82323 16.7632L5.8242 16.7612L5.98631 16.6079C6.81101 15.8641 7.88418 15.4497 8.99999 15.4497ZM8.99999 17.4497C8.33931 17.4497 7.70473 17.7104 7.23631 18.1763L7.23729 18.1772L6.41405 18.9995L7.23729 19.8228H7.23631C7.70478 20.2889 8.33909 20.5503 8.99999 20.5503L9.24608 20.5376C9.81641 20.4812 10.3528 20.2304 10.7627 19.8228L11.5849 18.9995L10.7627 18.1772V18.1763C10.2943 17.7107 9.66043 17.4497 8.99999 17.4497Z" fill="#686583" style="fill-opacity:1;"/><path d="M13.2226 11.4556C14.2578 11.5068 15.244 11.9138 16.0137 12.6079L16.1758 12.7612L16.1767 12.7632L17.707 14.2925C18.0975 14.683 18.0975 15.317 17.707 15.7075L16.1767 17.2368L16.1758 17.2388C15.3324 18.0788 14.1903 18.5503 13 18.5503C11.8096 18.5503 10.6676 18.0788 9.8242 17.2388L9.82323 17.2368L8.29295 15.7075C7.90243 15.317 7.90243 14.683 8.29295 14.2925L9.82323 12.7632L9.8242 12.7612L9.98631 12.6079C10.811 11.8641 11.8842 11.4497 13 11.4497L13.2226 11.4556ZM12.7539 13.4614C12.1835 13.5178 11.6462 13.7686 11.2363 14.1763L11.2373 14.1772L10.414 14.9995L11.2373 15.8228H11.2363C11.7048 16.2889 12.3391 16.5503 13 16.5503C13.6606 16.5503 14.2943 16.2886 14.7627 15.8228L15.5849 14.9995L14.7627 14.1772V14.1763C14.2943 13.7107 13.6604 13.4497 13 13.4497L12.7539 13.4614Z" fill="#686583" style="fill-opacity:1;"/><path d="M17.2226 7.45557C18.2578 7.50682 19.244 7.91375 20.0137 8.60791L20.1758 8.76123L20.1767 8.76318L21.707 10.2925L21.7734 10.3667C21.919 10.5445 21.9999 10.7677 22 10.9995C22 11.2315 21.9191 11.4554 21.7734 11.6333L21.707 11.7075L20.1767 13.2368L20.1758 13.2388C19.3851 14.0263 18.332 14.4895 17.2226 14.5444L17 14.5503C15.8096 14.5503 14.6676 14.0788 13.8242 13.2388L13.8232 13.2368L12.293 11.7075C11.9024 11.317 11.9024 10.683 12.293 10.2925L13.8232 8.76318L13.8242 8.76123L13.9863 8.60791C14.811 7.86414 15.8842 7.44971 17 7.44971L17.2226 7.45557ZM16.7539 9.46143C16.1835 9.51782 15.6462 9.76862 15.2363 10.1763L15.2373 10.1772L14.414 10.9995L15.2373 11.8228H15.2363C15.7048 12.2889 16.3391 12.5503 17 12.5503L17.2461 12.5376C17.8164 12.4812 18.3528 12.2304 18.7627 11.8228L19.5849 10.9995L18.7627 10.1772V10.1763C18.2943 9.71074 17.6604 9.44971 17 9.44971L16.7539 9.46143Z" fill="#686583" style="fill-opacity:1;"/></svg>