<svg class="w-6 h-6" width="24" height="24" viewBox="0 0 24 24" fill="none" xmlns="http://www.w3.org/2000/svg"><path d="M17 4.00091C18.5527 3.9768 20.0529 4.56419 21.1758 5.63763C22.303 6.71534 22.959 8.19488 23 9.75384V9.78021C23 12.0684 22.203 15.2637 21.0391 17.8788C20.4546 19.192 19.751 20.42 18.9609 21.3368C18.1994 22.2206 17.1952 22.9999 16 22.9999C15.1386 22.9999 14.3127 22.6369 13.7197 22.3974C13.0494 22.1267 12.5305 21.9404 12 21.9404C11.4695 21.9404 10.9506 22.1267 10.2803 22.3974C9.68729 22.6369 8.86138 22.9999 8 22.9999C6.80476 22.9999 5.80064 22.2206 5.03906 21.3368C4.24899 20.42 3.54544 19.192 2.96094 17.8788C1.79701 15.2637 1.00005 12.0684 1 9.78021V9.75579C1.03789 8.19528 1.69306 6.71345 2.82129 5.6347C3.94473 4.56069 5.44656 3.97418 7 4.00091V3.99993L7.00293 4.00091C7.00878 4.00101 7.01466 3.99981 7.02051 3.99993L7.01953 4.00091C8.33784 4.0051 9.49157 4.4323 10.4102 4.89837C10.8732 5.13331 11.2879 5.38431 11.6387 5.60345C11.7725 5.68704 11.892 5.76188 12 5.83001C12.108 5.76188 12.2275 5.68704 12.3613 5.60345C12.7121 5.38431 13.1268 5.13331 13.5898 4.89837C14.5087 4.43219 15.6627 4.00489 16.9814 4.00091V3.99993C16.986 3.99985 16.9906 4.00098 16.9951 4.00091C16.9967 4.00091 16.9984 3.99993 17 3.99993V4.00091ZM6.97949 5.99993C5.94778 5.97857 4.94904 6.36692 4.20312 7.08001C3.45918 7.79136 3.02695 8.76805 3 9.79681C3.00405 11.7286 3.70627 14.6337 4.78906 17.0663C5.32946 18.2803 5.93866 19.3163 6.55469 20.0312C7.19932 20.7792 7.69525 20.9999 8 20.9999C8.38843 20.9999 8.81274 20.8334 9.53223 20.5429C10.1743 20.2836 11.0306 19.9404 12 19.9404C12.9694 19.9404 13.8257 20.2836 14.4678 20.5429C15.1873 20.8334 15.6116 20.9999 16 20.9999C16.3048 20.9999 16.8007 20.7792 17.4453 20.0312C18.0613 19.3163 18.6705 18.2803 19.2109 17.0663C20.2934 14.6345 20.9945 11.7305 20.999 9.79876C20.97 8.77017 20.5378 7.7942 19.7939 7.08294C19.0948 6.41454 18.1742 6.03047 17.2119 6.00091L17.0186 5.99993C17.0124 6.00005 17.0062 5.99993 17 5.99993C16.1065 5.99993 15.2669 6.28999 14.4951 6.68157C14.1107 6.8766 13.7544 7.09141 13.4209 7.29974C13.1066 7.49606 12.7661 7.71739 12.4883 7.87298C12.185 8.04264 11.815 8.04264 11.5117 7.87298C11.2339 7.71739 10.8934 7.49606 10.5791 7.29974C10.2456 7.09141 9.88927 6.8766 9.50488 6.68157C8.82969 6.33902 8.10261 6.07456 7.33301 6.0136L7 5.99993C6.99316 5.99993 6.98633 6.00007 6.97949 5.99993Z" fill="#686583" style="fill-opacity:1;"/><path d="M11 6.99999C11 4.34684 10.1744 3.28297 9.65235 2.95117L9.55274 2.89453L9.46387 2.84374C9.03575 2.57243 8.87392 2.01584 9.10547 1.55273C9.33704 1.08961 9.87959 0.884708 10.3535 1.06445L10.4473 1.10546L10.5859 1.1787C12.0043 1.97575 13 3.92833 13 6.99999C13 7.55228 12.5523 7.99999 12 7.99999C11.4477 7.99999 11 7.55228 11 6.99999Z" fill="#686583" style="fill-opacity:1;"/></svg>