<svg class="w-6 h-6" width="24" height="24" viewBox="0 0 24 24" fill="none" xmlns="http://www.w3.org/2000/svg"><path d="M3.50393 12.1316C5.39872 11.0489 7.62012 10.4728 9.69924 10.7595C11.5574 11.0159 13.2582 11.9601 14.4278 13.74C15.183 13.4858 15.9807 13.3703 16.7823 13.405C17.9039 13.4536 18.9943 13.7914 19.9463 14.3865C20.8983 14.9815 21.6797 15.8136 22.2149 16.8005C22.7499 17.7874 23.0207 18.8959 23 20.0183C22.9898 20.5705 22.5337 21.01 21.9815 20.9998C21.4293 20.9895 20.9898 20.5334 21 19.9812C21.0143 19.2043 20.8274 18.4368 20.4571 17.7537C20.0865 17.0704 19.5449 16.4947 18.8858 16.0828C18.2266 15.6708 17.4719 15.4367 16.6953 15.4031C16.016 15.3737 15.3399 15.4979 14.7178 15.7664L14.4551 15.8904C14.2176 16.0116 13.9409 16.0332 13.6875 15.95C13.466 15.8771 13.2778 15.7295 13.1543 15.5339L13.1055 15.447C12.2601 13.7565 10.9276 12.9481 9.42581 12.741C7.88001 12.5278 6.10127 12.9507 4.49612 13.8679C4.0166 14.1419 3.40587 13.9754 3.13186 13.4959C2.85799 13.0164 3.02447 12.4056 3.50393 12.1316Z" fill="#686583" style="fill-opacity:1;"/><path d="M17 10C17 8.92281 16.599 7.07587 15.8135 5.51172C14.9937 3.87943 13.9953 3 13 3C12.9621 3 12.9355 3.00262 12.918 3.00586L12.8906 3.01367C12.8786 3.02697 12.813 3.11613 12.7783 3.37109C12.7076 3.89268 12.8215 4.69961 13.1035 5.58789C14.9439 11.2978 11.4197 17.201 5.41504 18.8545L5.41406 18.8535C5.15503 18.9256 4.91159 18.9901 4.68848 19.0479C4.46107 19.1067 4.26021 19.158 4.07422 19.209C3.69317 19.3135 3.44388 19.3981 3.27051 19.4854C3.11165 19.5654 3.07314 19.6202 3.06055 19.6406C3.04666 19.6631 3 19.7505 3 20C3 20.198 3.0587 20.2989 3.17285 20.3965C3.32727 20.5285 3.61342 20.6669 4.08105 20.7754C5.02395 20.9942 6.27534 21 7.50977 21C13.0906 21 17 16.1188 17 10ZM19 10C19 16.8812 14.5089 23 7.50977 23C6.34431 23 4.84087 23.0058 3.62891 22.7246C3.01911 22.5831 2.37773 22.3465 1.87402 21.916C1.33007 21.4511 1 20.802 1 20C1 19.4995 1.09575 19.018 1.3584 18.5918C1.62234 18.1635 1.9942 17.889 2.37109 17.6992C2.73389 17.5166 3.14703 17.3894 3.54492 17.2803C3.74833 17.2245 3.967 17.1692 4.18652 17.1123C4.40926 17.0546 4.63997 16.9941 4.88184 16.9268L4.88477 16.9258L5.34961 16.7861C10.085 15.2382 12.6085 10.5648 11.1982 6.19727L11.1973 6.19238C10.8793 5.19083 10.6677 4.05246 10.7969 3.10156C10.8623 2.62031 11.0275 2.09065 11.4092 1.66992C11.819 1.21822 12.3796 1 13 1C15.2247 1 16.7263 2.87062 17.6016 4.61328C18.511 6.42409 19 8.57723 19 10Z" fill="#686583" style="fill-opacity:1;"/></svg>