<svg class="w-6 h-6" width="24" height="24" viewBox="0 0 24 24" fill="none" xmlns="http://www.w3.org/2000/svg"><path d="M16 1C16.5523 1 17 1.44772 17 2C17 2.55228 16.5523 3 16 3H8C7.44772 3 7 2.55228 7 2C7 1.44772 7.44772 1 8 1H16Z" fill="#686583" style="fill-opacity:1;"/><path d="M6 20V10.2119C5.99984 9.22447 6.29208 8.25909 6.83984 7.4375L7.49609 6.45312L7.6123 6.26465C7.8297 5.87983 7.95951 5.45151 7.99219 5.01074L8 4.78906V2C8 1.44772 8.44772 1 9 1C9.55228 1 10 1.44772 10 2V4.78906L9.98633 5.1582C9.93192 5.89289 9.71585 6.60661 9.35352 7.24805L9.16016 7.5625L8.50391 8.54688C8.1752 9.03989 7.99987 9.61936 8 10.2119V20C8 20.2652 8.10543 20.5195 8.29297 20.707C8.48051 20.8946 8.73478 21 9 21H15C15.2652 21 15.5195 20.8946 15.707 20.707C15.8946 20.5195 16 20.2652 16 20V10.2109C16 9.69268 15.866 9.18441 15.6123 8.73535L15.4961 8.54688L14.8398 7.5625C14.3606 6.84364 14.077 6.01471 14.0137 5.15723L14 4.78809V2C14 1.44772 14.4477 1 15 1C15.5523 1 16 1.44772 16 2V4.78809L16.0078 5.00977C16.0458 5.52433 16.2163 6.02176 16.5039 6.45312L17.1602 7.4375L17.3535 7.75195C17.7763 8.50037 18 9.34721 18 10.2109V20C18 20.7957 17.6837 21.5585 17.1211 22.1211C16.5585 22.6837 15.7957 23 15 23H9C8.20435 23 7.44152 22.6837 6.87891 22.1211C6.3163 21.5585 6 20.7956 6 20Z" fill="#686583" style="fill-opacity:1;"/><path d="M9.50001 13.4977C10.491 13.4977 11.4726 13.6949 12.3867 14.0778L12.6397 14.1764C13.2355 14.3919 13.865 14.5026 14.5 14.5026L14.7715 14.4957C15.4043 14.4643 16.0276 14.3231 16.6133 14.0778L16.71 14.0426C17.1948 13.8951 17.7218 14.1364 17.9219 14.6139C18.1352 15.1232 17.8959 15.709 17.3867 15.9225L17.041 16.0573C16.3434 16.3096 15.612 16.4569 14.8711 16.4938L14.5 16.5026C13.6327 16.5026 12.7728 16.3516 11.959 16.0573L11.6133 15.9225C10.944 15.6422 10.2256 15.4977 9.50001 15.4977C8.77436 15.4977 8.05606 15.6422 7.38672 15.9225C6.87731 16.1358 6.29049 15.8958 6.07715 15.3864C5.86397 14.8771 6.1042 14.2912 6.61329 14.0778C7.5274 13.6949 8.50897 13.4977 9.50001 13.4977Z" fill="#686583" style="fill-opacity:1;"/></svg>