<svg class="w-6 h-6" width="24" height="24" viewBox="0 0 24 24" fill="none" xmlns="http://www.w3.org/2000/svg"><path d="M14.6305 1.31218C16.3084 0.844025 18.0132 0.887955 19.4753 1.51238C20.9492 2.14188 22.0497 3.30999 22.6022 4.82097C23.1502 6.31951 23.1173 8.03629 22.5817 9.70574C22.4896 9.99247 22.2735 10.2224 21.9928 10.3317C21.7471 10.4273 21.4746 10.422 21.235 10.319L21.1344 10.2682C20.6978 10.0192 20.0839 9.92537 19.3639 10.0944C18.6434 10.2636 17.9042 10.6791 17.2917 11.2917C16.6791 11.9042 16.2636 12.6434 16.0944 13.3639C15.9254 14.0839 16.0192 14.6978 16.2682 15.1344L16.319 15.235C16.422 15.4746 16.4273 15.7471 16.3317 15.9928C16.236 16.2385 16.0479 16.4347 15.8102 16.5417L15.7057 16.5817C14.0363 17.1173 12.3195 17.1502 10.821 16.6022C9.30999 16.0497 8.14188 14.9492 7.51238 13.4753C6.88796 12.0132 6.84403 10.3084 7.31218 8.63054C7.78049 6.95225 8.74495 5.35207 10.0485 4.04851C11.3521 2.74495 12.9522 1.78049 14.6305 1.31218ZM18.6891 3.35222C17.7161 2.93674 16.4884 2.87074 15.1686 3.23894C13.8491 3.6071 12.5438 4.38132 11.4626 5.46257C10.3813 6.54382 9.6071 7.84909 9.23894 9.16863C8.87074 10.4884 8.93674 11.7161 9.35222 12.6891C9.76272 13.6503 10.51 14.3595 11.5075 14.7243C12.2579 14.9987 13.1425 15.073 14.0905 14.9196C13.9649 14.2708 13.9883 13.5834 14.1471 12.9069C14.4095 11.7897 15.0279 10.7274 15.8776 9.87761C16.7274 9.02787 17.7897 8.40945 18.9069 8.14714C19.5834 7.9883 20.2708 7.96491 20.9196 8.0905C21.073 7.14249 20.9987 6.25793 20.7243 5.50749C20.3595 4.50995 19.6503 3.76272 18.6891 3.35222Z" fill="#686583" style="fill-opacity:1;"/><path d="M7.58325 12.003C7.97379 11.6126 8.60684 11.6125 8.99732 12.003C9.38766 12.3935 9.38766 13.0265 8.99732 13.417L6.39673 16.0166C6.12129 16.2921 5.71601 16.3794 5.35767 16.253L5.20728 16.1856C5.01688 16.0807 4.80593 16.0182 4.58911 16.003C4.37213 15.9877 4.15378 16.0204 3.95044 16.0977C3.74727 16.175 3.56337 16.2958 3.41138 16.4512C3.25935 16.6067 3.1423 16.7932 3.06958 16.9981C2.99691 17.203 2.97047 17.4213 2.99048 17.6377C3.01052 17.8541 3.0768 18.064 3.18579 18.252C3.29495 18.4401 3.44424 18.6027 3.62231 18.7276C3.75578 18.8212 3.90317 18.8926 4.05884 18.9385L4.21704 18.9756L4.3645 19.0137C4.69771 19.1279 4.9505 19.4119 5.02075 19.7647L5.06079 19.9209C5.10888 20.0744 5.18109 20.2197 5.27564 20.3506C5.4017 20.5252 5.56396 20.6711 5.75122 20.7774C5.93854 20.8837 6.14702 20.9481 6.36157 20.9668C6.57615 20.9855 6.79246 20.958 6.99536 20.8858C7.19821 20.8135 7.38295 20.698 7.53735 20.5479C7.69174 20.3978 7.81293 20.2164 7.89087 20.0157C7.96881 19.8148 8.0022 19.5989 7.9895 19.3838C7.97677 19.1689 7.91764 18.9588 7.81665 18.7686C7.61083 18.3806 7.68195 17.9035 7.99243 17.5928L10.5833 15.003C10.9738 14.6126 11.6068 14.6125 11.9973 15.003C12.3877 15.3935 12.3877 16.0265 11.9973 16.417L9.86646 18.5469C9.93075 18.7813 9.97119 19.0226 9.9856 19.2666C10.0152 19.7683 9.93694 20.2708 9.75513 20.7393C9.57328 21.2077 9.29213 21.6312 8.93189 21.9815C8.57152 22.3319 8.13976 22.6009 7.66626 22.7696C7.19282 22.9382 6.68842 23.0027 6.18774 22.959C5.68719 22.9153 5.20191 22.7646 4.76489 22.5166C4.32773 22.2686 3.94882 21.929 3.65454 21.5215C3.48632 21.2886 3.34943 21.0359 3.24341 20.7705C2.97199 20.6676 2.7129 20.5329 2.47388 20.3653C2.05837 20.0738 1.711 19.6949 1.4563 19.2559C1.20163 18.8169 1.0451 18.3277 0.998292 17.8223C0.951516 17.317 1.01511 16.8074 1.18482 16.3291C1.35453 15.8509 1.62685 15.4156 1.98169 15.0528C2.33659 14.6899 2.76602 14.4079 3.24048 14.2276C3.71475 14.0474 4.22266 13.9723 4.72876 14.0079C4.97306 14.025 5.21445 14.0687 5.44849 14.1358L7.58325 12.003Z" fill="#686583" style="fill-opacity:1;"/></svg>